<svg xmlns="http://www.w3.org/2000/svg" viewBox="0 0 1200 100">
  <!-- Base shape with irregular torn edge -->
  <path d="M0,100 V30 
    C10,35 15,25 20,32 
    C30,20 35,38 40,32 
    C55,45 65,28 75,35 
    C85,25 95,38 105,30 
    C115,40 125,22 135,32 
    C150,20 160,35 170,28 
    C185,38 195,25 205,35 
    C215,20 230,38 240,28 
    C255,40 265,22 275,36 
    C285,24 300,35 310,28 
    C325,40 335,22 345,34 
    C360,25 370,38 380,30 
    C395,42 410,25 420,35 
    C435,22 445,36 455,28 
    C470,40 480,20 490,35 
    C505,22 515,36 525,26 
    C540,40 550,22 560,33 
    C575,24 585,38 595,30 
    C610,42 625,23 635,35 
    C650,20 660,36 670,28 
    C685,42 695,20 705,37 
    C715,25 730,38 740,26 
    C755,42 770,24 780,36 
    C790,24 805,35 815,26 
    C830,40 840,22 850,34 
    C865,25 875,40 885,28 
    C900,42 910,20 920,35 
    C935,24 945,38 955,25 
    C970,40 980,18 990,36 
    C1005,24 1015,40 1025,30 
    C1040,42 1050,22 1060,36 
    C1075,25 1085,42 1095,28 
    C1105,38 1115,24 1125,35 
    C1135,22 1150,38 1160,25 
    C1175,40 1185,20 1195,35 L1200,35 V100 z" 
    fill="white" />
  
  <!-- Subtle "fibers" to enhance the torn look -->
  <g fill="none" stroke="white" stroke-width="0.5" opacity="0.7">
    <!-- Small vertical lines simulating paper fibers -->
    <line x1="30" y1="25" x2="30" y2="40" />
    <line x1="95" y1="30" x2="95" y2="43" />
    <line x1="160" y1="28" x2="160" y2="42" />
    <line x1="220" y1="22" x2="220" y2="38" />
    <line x1="290" y1="30" x2="290" y2="45" />
    <line x1="350" y1="25" x2="350" y2="42" />
    <line x1="430" y1="28" x2="430" y2="45" />
    <line x1="510" y1="24" x2="510" y2="40" />
    <line x1="580" y1="30" x2="580" y2="48" />
    <line x1="650" y1="22" x2="650" y2="38" />
    <line x1="720" y1="32" x2="720" y2="45" />
    <line x1="790" y1="24" x2="790" y2="42" />
    <line x1="860" y1="28" x2="860" y2="45" />
    <line x1="930" y1="22" x2="930" y2="40" />
    <line x1="1000" y1="32" x2="1000" y2="48" />
    <line x1="1070" y1="25" x2="1070" y2="42" />
    <line x1="1140" y1="30" x2="1140" y2="45" />
  </g>
</svg>
